# Wavefront OBJ file automatically generated by Tiled2Unity

# Vertices (Count = 88)
v 0 -1.28 0
v -1.28 -1.28 0
v -1.28 0 0
v 0 0 0
v -2.56 -1.28 0
v -3.84 -1.28 0
v -3.84 0 0
v -2.56 0 0
v -5.12 -1.28 0
v -5.12 0 0
v -6.4 -1.28 0
v -6.4 0 0
v -7.68 -1.28 0
v -8.96 -1.28 0
v -8.96 0 0
v -7.68 0 0
v 0 -2.56 0
v -1.28 -2.56 0
v -2.56 -2.56 0
v -3.84 -2.56 0
v -5.12 -2.56 0
v -6.4 -2.56 0
v -7.68 -2.56 0
v -8.96 -2.56 0
v 0 -3.84 0
v -1.28 -3.84 0
v -2.56 -3.84 0
v -3.84 -3.84 0
v -5.12 -3.84 0
v -6.4 -3.84 0
v -7.68 -3.84 0
v -8.96 -3.84 0
v 0 -5.12 0
v -1.28 -5.12 0
v -2.56 -5.12 0
v -3.84 -5.12 0
v -5.12 -5.12 0
v -6.4 -5.12 0
v -7.68 -5.12 0
v -8.96 -5.12 0
v 0 -6.4 0
v -1.28 -6.4 0
v -2.56 -6.4 0
v -3.84 -6.4 0
v -5.12 -6.4 0
v -6.4 -6.4 0
v -7.68 -6.4 0
v -8.96 -6.4 0
v 0 -7.68 0
v -1.28 -7.68 0
v -2.56 -7.68 0
v -3.84 -7.68 0
v -5.12 -7.68 0
v -6.4 -7.68 0
v -7.68 -7.68 0
v -8.96 -7.68 0
v 0 -8.96 0
v -1.28 -8.96 0
v -2.56 -8.96 0
v -3.84 -8.96 0
v -5.12 -8.96 0
v -6.4 -8.96 0
v -7.68 -8.96 0
v -8.96 -8.96 0
v 0 -10.24 0
v -1.28 -10.24 0
v -2.56 -10.24 0
v -3.84 -10.24 0
v -5.12 -10.24 0
v -6.4 -10.24 0
v -7.68 -10.24 0
v -8.96 -10.24 0
v 0 -11.52 0
v -1.28 -11.52 0
v -2.56 -11.52 0
v -3.84 -11.52 0
v -5.12 -11.52 0
v -6.4 -11.52 0
v -7.68 -11.52 0
v -8.96 -11.52 0
v 0 -12.8 0
v -1.28 -12.8 0
v -2.56 -12.8 0
v -3.84 -12.8 0
v -5.12 -12.8 0
v -6.4 -12.8 0
v -7.68 -12.8 0
v -8.96 -12.8 0

# Texture cooridinates (Count = 12)
vt 0.0001220703 0.0001220703
vt 0.9998779 0.0001220703
vt 0.9998779 0.9998779
vt 0.0001220703 0.9998779
vt 0.0001220703 6.103516E-05
vt 0.9998779 6.103516E-05
vt 0.9998779 0.499939
vt 0.0001220703 0.499939
vt 0.0001220703 0.500061
vt 0.9998779 0.500061
vt 0.9998779 0.999939
vt 0.0001220703 0.999939

# Normal
vn 0 0 -1

# Groups (Count = 1)

g mesh_0001
f 1/1/1 2/2/1 3/3/1 4/4/1
f 5/1/1 6/2/1 7/3/1 8/4/1
f 6/1/1 9/2/1 10/3/1 7/4/1
f 9/1/1 11/2/1 12/3/1 10/4/1
f 13/1/1 14/2/1 15/3/1 16/4/1
f 17/1/1 18/2/1 2/3/1 1/4/1
f 18/1/1 19/2/1 5/3/1 2/4/1
f 19/1/1 20/2/1 6/3/1 5/4/1
f 20/1/1 21/2/1 9/3/1 6/4/1
f 21/1/1 22/2/1 11/3/1 9/4/1
f 22/1/1 23/2/1 13/3/1 11/4/1
f 23/1/1 24/2/1 14/3/1 13/4/1
f 25/1/1 26/2/1 18/3/1 17/4/1
f 26/1/1 27/2/1 19/3/1 18/4/1
f 27/1/1 28/2/1 20/3/1 19/4/1
f 28/1/1 29/2/1 21/3/1 20/4/1
f 29/1/1 30/2/1 22/3/1 21/4/1
f 30/1/1 31/2/1 23/3/1 22/4/1
f 31/1/1 32/2/1 24/3/1 23/4/1
f 33/1/1 34/2/1 26/3/1 25/4/1
f 34/1/1 35/2/1 27/3/1 26/4/1
f 35/1/1 36/2/1 28/3/1 27/4/1
f 36/1/1 37/2/1 29/3/1 28/4/1
f 37/1/1 38/2/1 30/3/1 29/4/1
f 38/1/1 39/2/1 31/3/1 30/4/1
f 39/1/1 40/2/1 32/3/1 31/4/1
f 41/1/1 42/2/1 34/3/1 33/4/1
f 43/1/1 44/2/1 36/3/1 35/4/1
f 44/1/1 45/2/1 37/3/1 36/4/1
f 45/1/1 46/2/1 38/3/1 37/4/1
f 47/1/1 48/2/1 40/3/1 39/4/1
f 49/1/1 50/2/1 42/3/1 41/4/1
f 51/1/1 52/2/1 44/3/1 43/4/1
f 52/1/1 53/2/1 45/3/1 44/4/1
f 53/1/1 54/2/1 46/3/1 45/4/1
f 55/1/1 56/2/1 48/3/1 47/4/1
f 57/1/1 58/2/1 50/3/1 49/4/1
f 58/1/1 59/2/1 51/3/1 50/4/1
f 59/1/1 60/2/1 52/3/1 51/4/1
f 60/1/1 61/2/1 53/3/1 52/4/1
f 61/1/1 62/2/1 54/3/1 53/4/1
f 62/1/1 63/2/1 55/3/1 54/4/1
f 63/1/1 64/2/1 56/3/1 55/4/1
f 65/1/1 66/2/1 58/3/1 57/4/1
f 66/1/1 67/2/1 59/3/1 58/4/1
f 67/1/1 68/2/1 60/3/1 59/4/1
f 68/1/1 69/2/1 61/3/1 60/4/1
f 69/1/1 70/2/1 62/3/1 61/4/1
f 70/1/1 71/2/1 63/3/1 62/4/1
f 71/1/1 72/2/1 64/3/1 63/4/1
f 73/1/1 74/2/1 66/3/1 65/4/1
f 74/1/1 75/2/1 67/3/1 66/4/1
f 75/1/1 76/2/1 68/3/1 67/4/1
f 76/1/1 77/2/1 69/3/1 68/4/1
f 77/1/1 78/2/1 70/3/1 69/4/1
f 78/1/1 79/2/1 71/3/1 70/4/1
f 79/1/1 80/2/1 72/3/1 71/4/1
f 81/1/1 82/2/1 74/3/1 73/4/1
f 83/1/1 84/2/1 76/3/1 75/4/1
f 84/1/1 85/2/1 77/3/1 76/4/1
f 85/1/1 86/2/1 78/3/1 77/4/1
f 87/1/1 88/2/1 80/3/1 79/4/1

g mesh_0002
f 2/5/1 5/6/1 8/7/1 3/8/1
f 11/5/1 13/6/1 16/7/1 12/8/1
f 42/9/1 43/10/1 35/11/1 34/12/1
f 46/9/1 47/10/1 39/11/1 38/12/1
f 50/5/1 51/6/1 43/7/1 42/8/1
f 54/5/1 55/6/1 47/7/1 46/8/1
f 82/9/1 83/10/1 75/11/1 74/12/1
f 86/9/1 87/10/1 79/11/1 78/12/1

